# xmcd CD database file
#
# Track frame offsets:
#	150
#	31787
#	65837
#	84175
#	113487
#	137975
#	152687
#
# Disc length: 2252 seconds
#
# Revision: 0
# Processed by: cddbd v1.5.2PL0 Copyright (c) Steve Scherf et al.
# Submitted via: CDex 1.51
#
DISCID=5008ca07
DTITLE=New Salt - Steps Of Time
DYEAR=1991
DGENRE=Jazz
TTITLE0=Brother Sun and Sister Moon
TTITLE1=Song For Souls
TTITLE2=Queen Of The Beach
TTITLE3=Dziobak
TTITLE4=Steps Of Time
TTITLE5=Pelagial
TTITLE6=Pelagial Part 2
EXTD=YEAR: 1991
EXTT0=
EXTT1=
EXTT2=
EXTT3=
EXTT4=
EXTT5=
EXTT6=
PLAYORDER=
